
<svg width="493" height="110" viewBox="0 0 493 110" fill="none" xmlns="http://www.w3.org/2000/svg">
<path d="M47.267 28.9716C46.9489 25.7633 45.5833 23.2708 43.1705 21.4943C40.7576 19.7178 37.483 18.8295 33.3466 18.8295C30.536 18.8295 28.1629 19.2273 26.2273 20.0227C24.2917 20.7917 22.8068 21.8655 21.7727 23.2443C20.7652 24.6231 20.2614 26.1875 20.2614 27.9375C20.2083 29.3958 20.5133 30.6686 21.1761 31.7557C21.8655 32.8428 22.8068 33.7841 24 34.5795C25.1932 35.3485 26.572 36.0246 28.1364 36.608C29.7008 37.1648 31.3712 37.642 33.1477 38.0398L40.4659 39.7898C44.0189 40.5852 47.2803 41.6458 50.25 42.9716C53.2197 44.2973 55.7917 45.928 57.9659 47.8636C60.1402 49.7992 61.8239 52.0795 63.017 54.7045C64.2367 57.3295 64.8599 60.339 64.8864 63.733C64.8599 68.7178 63.5871 73.0398 61.0682 76.6989C58.5758 80.3314 54.9697 83.1553 50.25 85.1705C45.5568 87.1591 39.8958 88.1534 33.267 88.1534C26.6913 88.1534 20.964 87.1458 16.0852 85.1307C11.233 83.1155 7.44129 80.1326 4.71023 76.1818C2.00568 72.2045 0.587121 67.286 0.454545 61.4261H17.1193C17.3049 64.1572 18.0871 66.4375 19.4659 68.267C20.8712 70.0701 22.7405 71.4356 25.0739 72.3636C27.4337 73.2652 30.0985 73.7159 33.0682 73.7159C35.9848 73.7159 38.517 73.2917 40.6648 72.4432C42.839 71.5947 44.5227 70.4148 45.7159 68.9034C46.9091 67.392 47.5057 65.6553 47.5057 63.6932C47.5057 61.8636 46.9621 60.3258 45.875 59.0795C44.8144 57.8333 43.25 56.7727 41.1818 55.8977C39.1402 55.0227 36.6345 54.2273 33.6648 53.5114L24.7955 51.2841C17.928 49.6136 12.5057 47.0019 8.52841 43.4489C4.55114 39.8958 2.57576 35.1098 2.60227 29.0909C2.57576 24.1591 3.88826 19.8504 6.53977 16.1648C9.2178 12.4792 12.8902 9.60227 17.5568 7.53409C22.2235 5.46591 27.5265 4.43182 33.4659 4.43182C39.5114 4.43182 44.7879 5.46591 49.2955 7.53409C53.8295 9.60227 57.3561 12.4792 59.875 16.1648C62.3939 19.8504 63.6932 24.1193 63.7727 28.9716H47.267ZM86.6122 109.909C84.4645 109.909 82.4493 109.737 80.5668 109.392C78.7107 109.074 77.1728 108.663 75.9531 108.159L79.7713 95.5114C81.7599 96.1212 83.5497 96.4527 85.1406 96.5057C86.758 96.5587 88.1501 96.1875 89.3168 95.392C90.5099 94.5966 91.4777 93.2443 92.2202 91.3352L93.2145 88.75L71.2997 25.9091H89.1179L101.766 70.7727H102.402L115.169 25.9091H133.107L109.362 93.6023C108.222 96.8902 106.671 99.7538 104.709 102.193C102.773 104.659 100.321 106.555 97.3509 107.881C94.3812 109.233 90.8016 109.909 86.6122 109.909ZM158.72 51.6818V87H141.777V25.9091H157.925V36.6875H158.641C159.993 33.1345 162.26 30.3239 165.442 28.2557C168.624 26.161 172.482 25.1136 177.016 25.1136C181.258 25.1136 184.957 26.0417 188.112 27.8977C191.268 29.7538 193.72 32.4053 195.47 35.8523C197.22 39.2727 198.095 43.3561 198.095 48.1023V87H181.152V51.125C181.179 47.3864 180.224 44.4697 178.288 42.375C176.353 40.2538 173.688 39.1932 170.294 39.1932C168.014 39.1932 165.999 39.6837 164.249 40.6648C162.525 41.6458 161.173 43.0777 160.192 44.9602C159.237 46.8163 158.747 49.0568 158.72 51.6818ZM228.869 88.1534C224.972 88.1534 221.498 87.4773 218.449 86.125C215.4 84.7462 212.987 82.7178 211.21 80.0398C209.46 77.3352 208.585 73.9678 208.585 69.9375C208.585 66.5436 209.208 63.6932 210.455 61.3864C211.701 59.0795 213.398 57.2235 215.545 55.8182C217.693 54.4129 220.133 53.3523 222.864 52.6364C225.621 51.9205 228.511 51.4167 231.534 51.125C235.087 50.7538 237.951 50.4091 240.125 50.0909C242.299 49.7462 243.877 49.2424 244.858 48.5795C245.839 47.9167 246.33 46.9356 246.33 45.6364V45.3977C246.33 42.8788 245.534 40.9299 243.943 39.5511C242.379 38.1723 240.152 37.483 237.261 37.483C234.212 37.483 231.786 38.1591 229.983 39.5114C228.18 40.8371 226.987 42.5076 226.403 44.5227L210.733 43.25C211.528 39.5379 213.093 36.3295 215.426 33.625C217.759 30.8939 220.769 28.7992 224.455 27.3409C228.167 25.8561 232.462 25.1136 237.341 25.1136C240.735 25.1136 243.983 25.5114 247.085 26.3068C250.214 27.1023 252.985 28.3352 255.398 30.0057C257.837 31.6761 259.759 33.8239 261.165 36.4489C262.57 39.0473 263.273 42.1629 263.273 45.7955V87H247.205V78.5284H246.727C245.746 80.4375 244.434 82.1212 242.79 83.5795C241.146 85.0114 239.17 86.1383 236.864 86.9602C234.557 87.7557 231.892 88.1534 228.869 88.1534ZM233.722 76.4602C236.214 76.4602 238.415 75.9697 240.324 74.9886C242.233 73.9811 243.731 72.6288 244.818 70.9318C245.905 69.2348 246.449 67.3125 246.449 65.1648V58.6818C245.919 59.0265 245.189 59.3447 244.261 59.6364C243.36 59.9015 242.339 60.1534 241.199 60.392C240.059 60.6042 238.919 60.803 237.778 60.9886C236.638 61.1477 235.604 61.2936 234.676 61.4261C232.688 61.7178 230.951 62.1818 229.466 62.8182C227.981 63.4545 226.828 64.3163 226.006 65.4034C225.184 66.464 224.773 67.7898 224.773 69.3807C224.773 71.6875 225.608 73.4508 227.278 74.6705C228.975 75.8636 231.123 76.4602 233.722 76.4602ZM276.418 109.909V25.9091H293.122V36.1705H293.878C294.62 34.5265 295.694 32.8561 297.099 31.1591C298.531 29.4356 300.387 28.0038 302.668 26.8636C304.974 25.697 307.838 25.1136 311.259 25.1136C315.713 25.1136 319.823 26.2803 323.588 28.6136C327.353 30.9205 330.363 34.4072 332.616 39.0739C334.87 43.714 335.997 49.5341 335.997 56.5341C335.997 63.3485 334.897 69.1023 332.696 73.7955C330.522 78.4621 327.552 82.0019 323.787 84.4148C320.048 86.8011 315.859 87.9943 311.219 87.9943C307.931 87.9943 305.134 87.4508 302.827 86.3636C300.546 85.2765 298.677 83.911 297.219 82.267C295.76 80.5966 294.647 78.9129 293.878 77.2159H293.361V109.909H276.418ZM293.003 56.4545C293.003 60.0871 293.507 63.2557 294.514 65.9602C295.522 68.6648 296.98 70.7727 298.889 72.2841C300.798 73.7689 303.118 74.5114 305.849 74.5114C308.607 74.5114 310.94 73.7557 312.849 72.2443C314.759 70.7064 316.204 68.5852 317.185 65.8807C318.192 63.1496 318.696 60.0076 318.696 56.4545C318.696 52.928 318.205 49.8258 317.224 47.1477C316.243 44.4697 314.798 42.375 312.889 40.8636C310.98 39.3523 308.634 38.5966 305.849 38.5966C303.092 38.5966 300.759 39.3258 298.849 40.7841C296.967 42.2424 295.522 44.3106 294.514 46.9886C293.507 49.6667 293.003 52.822 293.003 56.4545ZM398.122 43.3295L382.611 44.2841C382.346 42.9583 381.776 41.7651 380.901 40.7045C380.026 39.6174 378.872 38.7557 377.44 38.1193C376.035 37.4564 374.351 37.125 372.389 37.125C369.764 37.125 367.55 37.6818 365.747 38.7955C363.944 39.8826 363.043 41.3409 363.043 43.1705C363.043 44.6288 363.626 45.8617 364.793 46.8693C365.959 47.8769 367.961 48.6856 370.798 49.2955L381.855 51.5227C387.795 52.7424 392.223 54.7045 395.139 57.4091C398.056 60.1136 399.514 63.6667 399.514 68.0682C399.514 72.072 398.334 75.5852 395.974 78.608C393.641 81.6307 390.433 83.9905 386.349 85.6875C382.293 87.358 377.613 88.1932 372.31 88.1932C364.223 88.1932 357.779 86.5095 352.98 83.142C348.207 79.7481 345.41 75.1345 344.588 69.3011L361.253 68.4261C361.757 70.892 362.976 72.7746 364.912 74.0739C366.848 75.3466 369.327 75.983 372.349 75.983C375.319 75.983 377.705 75.4129 379.509 74.2727C381.338 73.1061 382.266 71.608 382.293 69.7784C382.266 68.2405 381.616 66.9811 380.344 66C379.071 64.9924 377.109 64.2235 374.457 63.6932L363.878 61.5852C357.912 60.392 353.471 58.3239 350.554 55.3807C347.664 52.4375 346.219 48.6856 346.219 44.125C346.219 40.2008 347.279 36.8201 349.401 33.983C351.548 31.1458 354.558 28.9583 358.429 27.4205C362.327 25.8826 366.887 25.1136 372.111 25.1136C379.827 25.1136 385.899 26.7443 390.327 30.0057C394.781 33.267 397.38 37.7083 398.122 43.3295ZM410.183 87V25.9091H427.126V87H410.183ZM418.695 18.0341C416.176 18.0341 414.015 17.1989 412.212 15.5284C410.435 13.8314 409.547 11.803 409.547 9.44318C409.547 7.10984 410.435 5.10795 412.212 3.4375C414.015 1.74053 416.176 0.892041 418.695 0.892041C421.214 0.892041 423.361 1.74053 425.138 3.4375C426.941 5.10795 427.842 7.10984 427.842 9.44318C427.842 11.803 426.941 13.8314 425.138 15.5284C423.361 17.1989 421.214 18.0341 418.695 18.0341ZM491.528 43.3295L476.017 44.2841C475.752 42.9583 475.182 41.7651 474.307 40.7045C473.432 39.6174 472.278 38.7557 470.847 38.1193C469.441 37.4564 467.758 37.125 465.795 37.125C463.17 37.125 460.956 37.6818 459.153 38.7955C457.35 39.8826 456.449 41.3409 456.449 43.1705C456.449 44.6288 457.032 45.8617 458.199 46.8693C459.366 47.8769 461.367 48.6856 464.205 49.2955L475.261 51.5227C481.201 52.7424 485.629 54.7045 488.545 57.4091C491.462 60.1136 492.92 63.6667 492.92 68.0682C492.92 72.072 491.741 75.5852 489.381 78.608C487.047 81.6307 483.839 83.9905 479.756 85.6875C475.699 87.358 471.019 88.1932 465.716 88.1932C457.629 88.1932 451.186 86.5095 446.386 83.142C441.614 79.7481 438.816 75.1345 437.994 69.3011L454.659 68.4261C455.163 70.892 456.383 72.7746 458.318 74.0739C460.254 75.3466 462.733 75.983 465.756 75.983C468.725 75.983 471.112 75.4129 472.915 74.2727C474.744 73.1061 475.672 71.608 475.699 69.7784C475.672 68.2405 475.023 66.9811 473.75 66C472.477 64.9924 470.515 64.2235 467.864 63.6932L457.284 61.5852C451.318 60.392 446.877 58.3239 443.96 55.3807C441.07 52.4375 439.625 48.6856 439.625 44.125C439.625 40.2008 440.686 36.8201 442.807 33.983C444.955 31.1458 447.964 28.9583 451.835 27.4205C455.733 25.8826 460.294 25.1136 465.517 25.1136C473.233 25.1136 479.305 26.7443 483.733 30.0057C488.188 33.267 490.786 37.7083 491.528 43.3295Z" fill="#12161E"/>
</svg>
